PathFileType	4	(X/Y/Z)	US003Walk_3.trc	
DataRate	CameraRate	NumFrames	NumMarkers	Units	OrigDataRate	OrigDataStartFrame	OrigNumFrames	
100.00	100.00	14	22	mm	100.00	1046	99	
Frame#	Time	LFEO			LFEP			LTIO			RFEO			RFEP			RTIO			LASI			RASI			LPSI			RPSI			LTHI			LKNE			LTIB			LANK			LHEE			LTOE			RTHI			RKNE			RTIB			RANK			RHEE			RTOE			
		X1	Y1	Z1	X2	Y2	Z2	X3	Y3	Z3	X4	Y4	Z4	X5	Y5	Z5	X6	Y6	Z6	X7	Y7	Z7	X8	Y8	Z8	X9	Y9	Z9	X10	Y10	Z10	X11	Y11	Z11	X12	Y12	Z12	X13	Y13	Z13	X14	Y14	Z14	X15	Y15	Z15	X16	Y16	Z16	X17	Y17	Z17	X18	Y18	Z18	X19	Y19	Z19	X20	Y20	Z20	X21	Y21	Z21	X22	Y22	Z22	

80	0.790	1379.20776	351.50327	-480.63461	1359.22571	598.15875	-483.74588	1306.08740	97.58456	-499.05252	1436.09473	354.56427	-357.76279	1364.54248	595.93469	-350.94666	1295.60608	137.33127	-327.85593	1409.26672	642.48248	-506.68674	1415.01685	639.49805	-329.79019	1293.43958	678.77924	-444.94043	1299.67603	674.00586	-385.02383	1360.00110	441.16644	-576.99133	1373.56555	350.47043	-526.27557	1355.00488	193.25510	-581.70490	1313.54272	97.69479	-530.17163	1261.66687	116.22417	-525.12115	1355.40698	33.48124	-460.29935	1410.30139	439.07553	-262.58691	1436.11108	353.25650	-311.28113	1386.43091	201.47719	-267.33249	1310.97766	131.24226	-299.87570	1273.70935	170.84137	-315.04572	1310.74084	45.57136	-353.86093 
81	0.800	1380.59387	350.78287	-480.36188	1363.18567	597.42371	-483.36685	1305.85620	97.61333	-498.91571	1447.90845	356.54224	-356.28384	1368.75415	595.10950	-350.57953	1310.80493	137.09563	-329.01428	1413.30957	641.61401	-506.49167	1419.40173	638.50952	-329.38556	1297.70959	678.36273	-444.30176	1304.03870	673.25049	-384.47400	1363.32239	440.94803	-576.82623	1375.43066	349.86166	-526.06183	1355.91187	192.63675	-581.44653	1313.50232	97.63332	-529.98871	1261.56946	116.35873	-524.97046	1355.33704	33.44068	-460.18521	1418.18201	440.06046	-261.29315	1447.33228	355.23975	-309.80560	1399.59717	202.49773	-266.96976	1325.86621	131.18846	-300.82712	1287.85034	169.86000	-316.55865	1329.36951	45.91292	-354.67419 
82	0.810	1381.98938	350.03152	-480.09674	1367.26147	596.63062	-483.00232	1305.63782	97.61971	-498.83371	1459.38867	358.47046	-354.79242	1372.98572	594.13934	-350.22495	1326.38940	136.58672	-330.04834	1417.49915	640.68402	-506.24500	1423.80737	637.34369	-328.93375	1302.09802	677.86987	-443.68054	1308.45081	672.41772	-383.91806	1366.76038	440.69604	-576.66559	1377.33484	349.21436	-525.85333	1356.89490	192.00116	-581.21979	1313.49414	97.54597	-529.85419	1261.50415	116.45467	-524.91290	1355.26086	33.39209	-460.08466	1426.13367	441.02585	-259.98837	1458.36584	357.19479	-308.32111	1412.95886	203.36284	-266.59860	1341.18030	130.88486	-301.67636	1302.32971	168.47569	-317.92633	1348.49121	46.08673	-355.29532 
83	0.820	1383.40356	349.28571	-479.84048	1371.46423	595.82324	-482.66275	1305.44751	97.61659	-498.77231	1470.49292	360.34155	-353.32397	1377.25391	593.07275	-349.89325	1342.36194	135.78128	-330.95609	1421.84924	639.73242	-505.95367	1428.25208	636.04669	-328.45520	1306.60876	677.34949	-443.07349	1312.94043	671.55750	-383.36639	1370.20374	440.41193	-576.50073	1379.22864	348.55911	-525.64484	1357.87866	191.38554	-581.01556	1313.50305	97.45087	-529.74121	1261.46802	116.53614	-524.89832	1355.18115	33.33944	-459.99600	1434.04651	441.96790	-258.70660	1469.12390	359.10806	-306.86044	1426.49060	204.08824	-266.21228	1356.91504	130.32024	-302.41437	1317.14197	166.66759	-319.15527	1368.13074	46.10608	-355.72595 
84	0.830	1384.84106	348.57748	-479.58893	1375.80164	595.03973	-482.35336	1305.29517	97.61821	-498.69855	1481.18481	362.14319	-351.90625	1381.57410	591.95984	-349.59036	1358.71545	134.66377	-331.74081	1426.36731	638.79437	-505.62219	1432.75244	634.66998	-327.97098	1311.26074	676.84033	-442.47900	1317.53467	670.71503	-382.82678	1373.57581	440.10284	-576.32526	1381.07654	347.92517	-525.42993	1358.80115	190.82190	-580.82062	1313.51636	97.36707	-529.62335	1261.46094	116.63037	-524.87842	1355.09973	33.28789	-459.91727	1441.80811	442.86417	-257.47867	1479.52148	360.95404	-305.45117	1440.16052	204.68726	-265.80423	1373.05493	129.48798	-303.03833	1332.27710	164.42630	-320.25613	1388.28979	45.99136	-355.96936 
85	0.840	1386.30237	347.93259	-479.33282	1380.28345	594.31116	-482.07062	1305.18860	97.63928	-498.58490	1491.43286	363.85461	-350.56213	1385.96997	590.85034	-349.31326	1375.43542	133.22897	-332.41086	1431.05652	637.90027	-505.25275	1437.33118	633.26953	-327.49570	1316.07788	676.36975	-441.89532	1322.25293	669.92749	-382.30331	1376.84265	439.78357	-576.13281	1382.86072	347.33878	-525.20007	1359.62195	190.33438	-580.61810	1313.52759	97.31302	-529.47748	1261.48901	116.76507	-524.81152	1355.01941	33.24273	-459.84625	1449.32336	443.67590	-256.32831	1489.48401	362.69363	-304.11743	1453.93140	205.17043	-265.37048	1389.57507	128.38855	-303.55103	1347.72327	161.75395	-321.23853	1408.94275	45.76968	-356.03033 
86	0.850	1387.78564	347.36932	-479.05872	1384.92175	593.65710	-481.79916	1305.13599	97.69404	-498.41125	1501.21252	365.44434	-349.31104	1390.48059	589.78796	-349.04767	1392.49731	131.48404	-332.97760	1435.91772	637.07446	-504.84677	1442.02295	631.90112	-327.03214	1321.07996	675.95288	-441.31821	1327.11011	669.21643	-381.79361	1380.01062	439.47330	-575.91553	1384.58167	346.82144	-524.94366	1360.32605	189.94032	-580.39081	1313.53894	97.30545	-529.28577	1261.56201	116.96550	-524.66565	1354.94312	33.20745	-459.78024	1456.52808	444.35333	-255.27118	1498.95435	364.27527	-302.88055	1467.76025	205.54457	-264.91110	1406.43970	127.03107	-303.95984	1363.46619	158.66521	-322.10730	1430.03308	45.47227	-355.91714 
87	0.860	1389.29675	346.89969	-478.75119	1389.73486	593.08673	-481.51715	1305.14404	97.79697	-498.16586	1510.50562	366.86938	-348.17010	1395.15479	588.80286	-348.77258	1409.85815	129.45006	-333.45355	1440.95129	636.33582	-504.40683	1446.87183	630.61230	-326.57211	1326.27466	675.59448	-440.73956	1332.12610	668.58539	-381.28769	1383.11414	439.19110	-575.66504	1386.25720	346.38937	-524.64777	1360.92395	189.65401	-580.12476	1313.55981	97.35995	-529.03632	1261.68811	117.25201	-524.42035	1354.87415	33.18296	-459.71600	1463.39453	444.84195	-254.31749	1507.89636	365.63928	-301.75961	1481.59570	205.81035	-264.43213	1423.59680	125.43444	-304.27533	1379.48279	155.18953	-322.86218	1451.47119	45.13196	-355.64423 
88	0.870	1390.85217	346.53064	-478.39615	1394.74084	592.60205	-481.20428	1305.22253	97.96454	-497.84470	1519.30676	368.07886	-347.15527	1400.04395	587.91077	-348.46887	1427.45166	127.16162	-333.85120	1446.15894	635.69763	-503.93701	1451.92346	629.43347	-326.10385	1331.65613	675.29218	-440.14822	1337.32849	668.02490	-380.77066	1386.20154	438.95383	-575.37238	1387.91968	346.05313	-524.30005	1361.44836	189.48891	-579.81195	1313.60559	97.49258	-528.72339	1261.87195	117.63953	-524.06537	1354.81714	33.16854	-459.65067	1469.93054	445.09088	-253.47522	1516.29968	366.72455	-300.77231	1495.37646	205.96051	-263.94678	1440.97253	123.62671	-304.50946	1395.73010	151.37277	-323.50052	1473.13342	44.77975	-355.23480 
89	0.880	1392.48254	346.26459	-477.98163	1399.95630	592.19897	-480.84738	1305.38098	98.21451	-497.44861	1527.62524	369.01538	-346.28287	1405.19080	587.11035	-348.12381	1445.18042	124.66375	-334.18124	1451.54419	635.16553	-503.44092	1457.21704	628.37408	-325.61874	1337.21106	675.03851	-439.53342	1342.74902	667.51770	-380.22675	1389.32300	438.77502	-575.02728	1389.61218	345.81686	-523.88977	1361.94421	189.45549	-579.44855	1313.69495	97.71980	-528.34564	1262.11768	118.13931	-523.59601	1354.77795	33.16282	-459.58154	1476.17859	445.06122	-252.75140	1524.18250	367.47397	-299.93610	1509.03357	205.97906	-263.47513	1458.46606	121.64234	-304.67520	1412.13354	147.27783	-324.02020	1494.86194	44.43874	-354.71994 
90	0.890	1394.22766	346.09595	-477.49774	1405.39453	591.86523	-480.43814	1305.63123	98.56163	-496.98114	1535.48279	369.62082	-345.57095	1410.62756	586.38806	-347.73001	1462.90784	122.00756	-334.45270	1457.11292	634.73492	-502.91977	1462.78406	627.42688	-325.11261	1342.92871	674.82043	-438.88596	1348.41516	667.04156	-379.64026	1392.52808	438.66089	-574.61823	1391.38440	345.67587	-523.40784	1362.45667	189.55632	-579.03131	1313.84717	98.05498	-527.90424	1262.43164	118.76099	-523.00909	1354.76257	33.16396	-459.50626	1482.21143	444.73120	-252.15205	1531.58923	367.83948	-299.26843	1522.49451	205.84178	-263.04205	1475.94421	119.51862	-304.78613	1428.58167	142.98041	-324.42682	1516.46008	44.11657	-354.13513 
91	0.900	1396.13220	346.00833	-476.93701	1411.06836	591.58099	-479.97037	1305.98499	99.01302	-496.44525	1542.91370	369.84274	-345.03778	1416.38110	585.72253	-347.28168	1480.45178	119.24616	-334.67218	1462.87292	634.39014	-502.37250	1468.65076	626.57422	-324.58389	1348.80981	674.61731	-438.19473	1354.34692	666.57074	-378.99518	1395.86829	438.60538	-574.13385	1393.28992	345.61404	-522.84741	1363.02405	189.78259	-578.55560	1314.07849	98.50389	-527.40051	1262.82214	119.51154	-522.30176	1354.77441	33.16969	-459.42252	1488.12695	444.09766	-251.68118	1538.58606	367.78708	-298.78522	1535.68042	205.51862	-262.67404	1493.23572	117.29302	-304.85599	1444.92126	138.56052	-324.73981	1537.68921	43.79963	-353.51572 
92	0.910	1398.24329	345.97385	-476.29514	1416.99023	591.31836	-479.43796	1306.44922	99.56684	-495.84387	1549.96167	369.64227	-344.70166	1422.47339	585.08844	-346.77322	1497.58264	116.42960	-334.84631	1468.83313	634.10541	-501.79663	1474.84009	625.79358	-324.03204	1354.86829	674.39978	-437.44244	1360.55957	666.07739	-378.27548	1399.39636	438.58871	-573.56305	1395.38428	345.60419	-522.20471	1363.67932	190.11388	-578.01556	1314.40112	99.06314	-526.83594	1263.29822	120.39152	-521.47375	1354.81299	33.17703	-459.32776	1494.04224	443.17517	-251.33885	1545.25586	367.30188	-298.49957	1548.49744	204.97693	-262.39728	1510.12610	115.00047	-304.89853	1460.95227	134.09731	-324.98682	1558.26648	43.45232	-352.89380 
93	0.920	1400.61462	345.95715	-475.57251	1423.17053	591.04504	-478.83615	1307.02893	100.21490	-495.18103	1556.67957	369.00018	-344.58112	1428.92383	584.45776	-346.19998	1514.02124	113.60121	-334.98334	1475.00256	633.84821	-501.19061	1481.37195	625.05829	-323.45770	1361.13171	674.13080	-436.60562	1367.06775	665.53241	-377.46579	1403.15894	438.57993	-572.89655	1397.72546	345.61169	-521.48035	1364.45435	190.51965	-577.40454	1314.82410	99.72230	-526.21301	1263.87366	121.39561	-520.52960	1354.87476	33.18224	-459.21811	1500.08557	441.99298	-251.12173	1551.69324	366.39032	-298.42297	1560.83105	204.18436	-262.23776	1526.35461	112.67063	-304.92886	1476.42383	129.67044	-325.19052	1577.86536	43.02202	-352.29761 
